<?xml version="1.0" encoding="UTF-8"?>
<svg width="317px" height="314px" viewBox="0 0 317 314" version="1.1" xmlns="http://www.w3.org/2000/svg" xmlns:xlink="http://www.w3.org/1999/xlink">
    <title>how-we-do-it</title>
    <g id="how-we-do-it" stroke="none" stroke-width="1" fill="none" fill-rule="evenodd">
        <g id="How-We-Do-It---Diagram-V2">
            <g id="uv-logo" transform="translate(0.000000, 109.000000)">
                <path d="M62.4693878,45 C67,45 70,42.1308725 70,36.7114094 L70,26 L67.9795918,26 L67.9795918,36.9026846 C67.9795918,40.9832215 65.8979592,43.0872483 62.5306122,43.0872483 C59.1020408,43.0872483 57.0204082,40.7919463 57.0204082,36.7751678 L57.0204082,26 L55,26 L55,36.9026846 C55,42.1946309 58,45 62.4693878,45 L62.4693878,45 Z" id="Path" fill="#717074" fill-rule="nonzero"></path>
                <polygon id="Path" fill="#717074" fill-rule="nonzero" points="79 44 80.9879518 44 80.9879518 29.244898 92.4337349 44 94 44 94 26 92.0722892 26 92.0722892 40.4489796 80.9277108 26 79 26"></polygon>
                <polygon id="Path" fill="#717074" fill-rule="nonzero" points="122 44 124 44 124 26 122 26"></polygon>
                <polygon id="Path" fill="#717074" fill-rule="nonzero" points="134 44 136.019934 44 136.019934 29 142.900332 43.2040816 143.973422 43.2653061 150.916944 28.8163265 150.916944 44 153 44 153 26 149.591362 26 143.468439 39.4081633 137.219269 26 134 26"></polygon>
                <polygon id="Path" fill="#717074" fill-rule="nonzero" points="162 44 164 44 164 26 162 26"></polygon>
                <polygon id="Path" fill="#717074" fill-rule="nonzero" points="177 44 179.060606 44 179.060606 27.8979592 185 27.8979592 185 26 171 26 171 27.8979592 177 27.8979592"></polygon>
                <path d="M213,44 L219.325581,44 C225.031008,44 229,40.0816327 229,35 L229,34.9387755 C229,29.8571429 225.031008,26 219.325581,26 L213,26 L213,44 L213,44 Z M219.325581,27.8979592 C223.914729,27.8979592 226.891473,31.0204082 226.891473,35 L226.891473,35.0612245 C226.891473,39.0408163 223.976744,42.1632653 219.325581,42.1632653 L215.046512,42.1632653 L215.046512,27.8979592 L219.325581,27.8979592 L219.325581,27.8979592 Z" id="Shape" fill="#717074"></path>
                <polygon id="Path" fill="#44BA86" fill-rule="nonzero" points="241.953846 45 243.923077 45 251 26.1279461 248.846154 26 243 41.7373737 237.276923 26 235 26.1279461"></polygon>
                <polygon id="Path" fill="#44BA86" fill-rule="nonzero" points="258 44 260 44 260 26 258 26"></polygon>
                <polygon id="Path" fill="#44BA86" fill-rule="nonzero" points="288 44 298 44 298 42.1632653 289.952663 42.1632653 289.952663 26 288 26"></polygon>
                <polygon id="Path" fill="#44BA86" fill-rule="nonzero" points="306 44 318 44 318 42.1632653 308.041237 42.1632653 308.041237 35.7346939 317.195876 35.7346939 317.195876 33.8979592 308.041237 33.8979592 308.041237 27.8979592 317.505155 27.8979592 317.505155 26 306 26"></polygon>
                <polygon id="Path" fill="#44BA86" fill-rule="nonzero" points="270 44 280 44 280 42.1632653 271.952663 42.1632653 271.952663 26 270 26"></polygon>
                <polygon id="Path" fill="#717074" fill-rule="nonzero" points="194 44 206 44 206 42.1632653 196.030769 42.1632653 196.030769 35.7346939 205.138462 35.7346939 205.138462 33.8979592 196.030769 33.8979592 196.030769 27.8979592 205.446154 27.8979592 205.446154 26 194 26"></polygon>
                <polygon id="Path" fill="#717074" fill-rule="nonzero" points="104 44 114 44 114 42.1632653 106.011834 42.1632653 106.011834 26 104 26"></polygon>
                <path d="M5,5.80152672 C5,5.80152672 10.4388889,0 21.5611111,0 C32.6833333,0 38,5.86259542 38,5.86259542 M10.4388889,10.8091603 C10.4388889,10.8091603 13.9833333,6.90076336 21.5,6.90076336 C28.8944444,6.90076336 32.4388889,10.870229 32.4388889,10.870229 M15.6333333,16 C15.6333333,16 18.0166667,13.9847328 21.4388889,13.9847328 C24.8611111,13.9847328 27.1833333,16 27.1833333,16" id="Shape" stroke="#717074" stroke-width="1.8157" stroke-linecap="round"></path>
                <path d="M0.0079275294,13.1257862 C0.0079275294,13.1257862 6.98597997,13.1257862 6.98597997,21.3647799 C6.98597997,29.2264151 6.98597997,39.7924528 6.98597997,39.7924528 C6.98597997,39.7924528 6.5498517,56.5220126 21.3159091,56.5220126 C36.0819665,56.5220126 36.0196625,39.7924528 36.0196625,39.7924528 C36.0196625,39.7924528 36.0196625,28.8490566 36.0196625,21.490566 C36.0196625,13.5031447 42.9977149,13 42.9977149,13 L42.9977149,39.7295597 C42.9977149,39.7295597 43.6830593,63 21.3159091,63 C-1.05124115,63 0.0079275294,39.7295597 0.0079275294,39.7295597 L0.0079275294,13.1257862 L0.0079275294,13.1257862 Z" id="Path" fill="#44BA86" fill-rule="nonzero"></path>
            </g>
            <path d="M112.828944,313.370514 L113.906944,313.370514 L113.906944,305.446514 L117.476944,310.682514 L117.532944,310.682514 L121.102944,305.432514 L121.102944,313.370514 L122.208944,313.370514 L122.208944,303.570514 L121.088944,303.570514 L117.518944,308.918514 L113.948944,303.570514 L112.828944,303.570514 L112.828944,313.370514 Z M127.701531,313.370514 L134.855531,313.370514 L134.855531,312.362514 L128.807531,312.362514 L128.807531,308.932514 L134.155531,308.932514 L134.155531,307.924514 L128.807531,307.924514 L128.807531,304.578514 L134.785531,304.578514 L134.785531,303.570514 L127.701531,303.570514 L127.701531,313.370514 Z M139.802119,313.370514 L140.880119,313.370514 L140.880119,305.446514 L144.450119,310.682514 L144.506119,310.682514 L148.076119,305.432514 L148.076119,313.370514 L149.182119,313.370514 L149.182119,303.570514 L148.062119,303.570514 L144.492119,308.918514 L140.922119,303.570514 L139.802119,303.570514 L139.802119,313.370514 Z M154.674706,313.370514 L154.674706,303.570514 L158.846706,303.570514 C159.966706,303.570514 160.848706,303.892514 161.408706,304.438514 C161.814706,304.858514 162.038706,305.376514 162.038706,306.006514 L162.038706,306.034514 C162.038706,307.308514 161.254706,307.966514 160.484706,308.302514 C161.646706,308.652514 162.584706,309.324514 162.584706,310.668514 L162.584706,310.696514 C162.584706,312.376514 161.170706,313.370514 159.028706,313.370514 L154.674706,313.370514 Z M160.918706,306.188514 L160.918706,306.160514 C160.918706,305.194514 160.148706,304.564514 158.748706,304.564514 L155.766706,304.564514 L155.766706,307.938514 L158.664706,307.938514 C159.994706,307.938514 160.918706,307.336514 160.918706,306.188514 Z M161.464706,310.598514 C161.464706,309.534514 160.568706,308.918514 158.860706,308.918514 L155.766706,308.918514 L155.766706,312.376514 L159.056706,312.376514 C160.540706,312.376514 161.464706,311.718514 161.464706,310.626514 L161.464706,310.598514 Z M167.503294,313.370514 L174.657294,313.370514 L174.657294,312.362514 L168.609294,312.362514 L168.609294,308.932514 L173.957294,308.932514 L173.957294,307.924514 L168.609294,307.924514 L168.609294,304.578514 L174.587294,304.578514 L174.587294,303.570514 L167.503294,303.570514 L167.503294,313.370514 Z M179.603881,313.370514 L179.603881,303.570514 L183.817881,303.570514 C185.021881,303.570514 185.987881,303.934514 186.603881,304.550514 C187.079881,305.026514 187.359881,305.712514 187.359881,306.482514 L187.359881,306.510514 C187.359881,308.134514 186.239881,309.086514 184.699881,309.366514 L187.709881,313.370514 L186.351881,313.370514 L183.509881,309.562514 L180.709881,309.562514 L180.709881,313.370514 L179.603881,313.370514 Z M180.709881,308.568514 L183.719881,308.568514 C185.189881,308.568514 186.239881,307.812514 186.239881,306.552514 L186.239881,306.524514 C186.239881,305.320514 185.315881,304.592514 183.733881,304.592514 L180.709881,304.592514 L180.709881,308.568514 Z M195.806469,313.510514 C197.752469,313.510514 199.152469,312.418514 199.152469,310.738514 L199.152469,310.710514 C199.152469,309.212514 198.144469,308.414514 195.960469,307.938514 C193.804469,307.476514 193.300469,306.958514 193.300469,306.034514 L193.300469,306.006514 C193.300469,305.124514 194.112469,304.424514 195.386469,304.424514 C196.394469,304.424514 197.304469,304.746514 198.214469,305.488514 L198.858469,304.634514 C197.864469,303.836514 196.842469,303.430514 195.414469,303.430514 C193.552469,303.430514 192.194469,304.564514 192.194469,306.104514 L192.194469,306.132514 C192.194469,307.742514 193.230469,308.470514 195.484469,308.960514 C197.542469,309.394514 198.032469,309.912514 198.032469,310.822514 L198.032469,310.850514 C198.032469,311.816514 197.164469,312.516514 195.848469,312.516514 C194.490469,312.516514 193.510469,312.054514 192.488469,311.130514 L191.802469,311.942514 C192.978469,312.992514 194.252469,313.510514 195.806469,313.510514 Z" id="MEMBERS" fill="#515151"></path>
            <path d="M192.398614,295.59759 C192.398614,295.59759 192.319888,288.028203 191.857524,287.24384 C191.169773,286.07529 189.568085,285.272137 186.594491,284.029229 C183.630888,282.789519 182.683382,281.744101 182.683382,279.505347 C182.683382,278.160495 183.588128,278.600251 183.986153,276.13962 C184.150797,275.118189 184.950043,276.12243 185.103099,273.792127 C185.103099,272.863044 184.666711,272.631573 184.666711,272.631573 C184.666711,272.631573 184.888501,271.257538 184.97482,270.199327 C185.082718,268.88086 184.310647,265.475955 180.197328,265.475955 C176.083211,265.475955 175.311939,268.88126 175.419837,270.199327 C175.506555,271.257538 175.727547,272.631573 175.727547,272.631573 C175.727547,272.631573 175.291958,272.863044 175.291958,273.792127 C175.445013,276.12243 176.24346,275.118189 176.408904,276.13962 C176.806129,278.600251 177.711674,278.160895 177.711674,279.505347 C177.711674,281.0273 177.27129,281.99796 176.058435,282.853483 C182.533524,286.096079 183.401505,286.756911 183.401505,289.655697 L183.401505,295.59799 L192.398614,295.59799 L192.398614,295.59759 Z M172.864249,285.154203 C168.911579,283.501523 167.648771,282.107499 167.648771,279.12316 C167.648771,277.330957 168.855632,277.916231 169.385532,274.634458 C169.604925,273.273615 170.671119,274.61207 170.874927,271.5046 C170.874927,270.266089 170.293475,269.958261 170.293475,269.958261 C170.293475,269.958261 170.589196,268.12608 170.704687,266.715266 C170.848152,264.957844 169.819523,260.417171 164.334299,260.417171 C158.849476,260.417171 157.820047,264.957444 157.964711,266.715266 C158.080202,268.12608 158.375123,269.958261 158.375123,269.958261 C158.375123,269.958261 157.793672,270.266089 157.793672,271.5046 C157.998279,274.61207 159.063673,273.273615 159.283866,274.634458 C159.813766,277.915832 161.020627,277.330557 161.020627,279.12316 C161.020627,282.107499 159.757019,283.501523 155.805149,285.154203 C154.600685,285.657922 152.437127,286.437888 152.437127,288.314844 L152.437127,295.59759 L180.198527,295.59759 L180.198527,290.137029 C180.197728,288.424782 176.828508,286.81248 172.864249,285.154203 L172.864249,285.154203 Z" id="Users-Copy-2" fill="#515151"></path>
            <path d="M223.398614,295.59759 C223.398614,295.59759 223.319888,288.028203 222.857524,287.24384 C222.169773,286.07529 220.568085,285.272137 217.594491,284.029229 C214.630888,282.789519 213.683382,281.744101 213.683382,279.505347 C213.683382,278.160495 214.588128,278.600251 214.986153,276.13962 C215.150797,275.118189 215.950043,276.12243 216.103099,273.792127 C216.103099,272.863044 215.666711,272.631573 215.666711,272.631573 C215.666711,272.631573 215.888501,271.257538 215.97482,270.199327 C216.082718,268.88086 215.310647,265.475955 211.197328,265.475955 C207.083211,265.475955 206.311939,268.88126 206.419837,270.199327 C206.506555,271.257538 206.727547,272.631573 206.727547,272.631573 C206.727547,272.631573 206.291958,272.863044 206.291958,273.792127 C206.445013,276.12243 207.24346,275.118189 207.408904,276.13962 C207.806129,278.600251 208.711674,278.160895 208.711674,279.505347 C208.711674,281.0273 208.27129,281.99796 207.058435,282.853483 C213.533524,286.096079 214.401505,286.756911 214.401505,289.655697 L214.401505,295.59799 L223.398614,295.59799 L223.398614,295.59759 Z M203.864249,285.154203 C199.911579,283.501523 198.648771,282.107499 198.648771,279.12316 C198.648771,277.330957 199.855632,277.916231 200.385532,274.634458 C200.604925,273.273615 201.671119,274.61207 201.874927,271.5046 C201.874927,270.266089 201.293475,269.958261 201.293475,269.958261 C201.293475,269.958261 201.589196,268.12608 201.704687,266.715266 C201.848152,264.957844 200.819523,260.417171 195.334299,260.417171 C189.849476,260.417171 188.820047,264.957444 188.964711,266.715266 C189.080202,268.12608 189.375123,269.958261 189.375123,269.958261 C189.375123,269.958261 188.793672,270.266089 188.793672,271.5046 C188.998279,274.61207 190.063673,273.273615 190.283866,274.634458 C190.813766,277.915832 192.020627,277.330557 192.020627,279.12316 C192.020627,282.107499 190.757019,283.501523 186.805149,285.154203 C185.600685,285.657922 183.437127,286.437888 183.437127,288.314844 L183.437127,295.59759 L211.198527,295.59759 L211.198527,290.137029 C211.197728,288.424782 207.828508,286.81248 203.864249,285.154203 L203.864249,285.154203 Z" id="Users-Copy-7" fill="#515151"></path>
            <path d="M254.558614,295.59759 C254.558614,295.59759 254.479888,288.028203 254.017524,287.24384 C253.329773,286.07529 251.728085,285.272137 248.754491,284.029229 C245.790888,282.789519 244.843382,281.744101 244.843382,279.505347 C244.843382,278.160495 245.748128,278.600251 246.146153,276.13962 C246.310797,275.118189 247.110043,276.12243 247.263099,273.792127 C247.263099,272.863044 246.826711,272.631573 246.826711,272.631573 C246.826711,272.631573 247.048501,271.257538 247.13482,270.199327 C247.242718,268.88086 246.470647,265.475955 242.357328,265.475955 C238.243211,265.475955 237.471939,268.88126 237.579837,270.199327 C237.666555,271.257538 237.887547,272.631573 237.887547,272.631573 C237.887547,272.631573 237.451958,272.863044 237.451958,273.792127 C237.605013,276.12243 238.40346,275.118189 238.568904,276.13962 C238.966129,278.600251 239.871674,278.160895 239.871674,279.505347 C239.871674,281.0273 239.43129,281.99796 238.218435,282.853483 C244.693524,286.096079 245.561505,286.756911 245.561505,289.655697 L245.561505,295.59799 L254.558614,295.59799 L254.558614,295.59759 Z M235.024249,285.154203 C231.071579,283.501523 229.808771,282.107499 229.808771,279.12316 C229.808771,277.330957 231.015632,277.916231 231.545532,274.634458 C231.764925,273.273615 232.831119,274.61207 233.034927,271.5046 C233.034927,270.266089 232.453475,269.958261 232.453475,269.958261 C232.453475,269.958261 232.749196,268.12608 232.864687,266.715266 C233.008152,264.957844 231.979523,260.417171 226.494299,260.417171 C221.009476,260.417171 219.980047,264.957444 220.124711,266.715266 C220.240202,268.12608 220.535123,269.958261 220.535123,269.958261 C220.535123,269.958261 219.953672,270.266089 219.953672,271.5046 C220.158279,274.61207 221.223673,273.273615 221.443866,274.634458 C221.973766,277.915832 223.180627,277.330557 223.180627,279.12316 C223.180627,282.107499 221.917019,283.501523 217.965149,285.154203 C216.760685,285.657922 214.597127,286.437888 214.597127,288.314844 L214.597127,295.59759 L242.358527,295.59759 L242.358527,290.137029 C242.357728,288.424782 238.988508,286.81248 235.024249,285.154203 L235.024249,285.154203 Z" id="Users-Copy-4" fill="#515151"></path>
            <path d="M99.5426135,295.59759 C99.5426135,295.59759 99.4638878,288.028203 99.0015242,287.24384 C98.3137732,286.07529 96.7120848,285.272137 93.7384912,284.029229 C90.7748881,282.789519 89.8273823,281.744101 89.8273823,279.505347 C89.8273823,278.160495 90.7321284,278.600251 91.1301528,276.13962 C91.2947974,275.118189 92.0940431,276.12243 92.2470987,273.792127 C92.2470987,272.863044 91.8107105,272.631573 91.8107105,272.631573 C91.8107105,272.631573 92.0325012,271.257538 92.1188197,270.199327 C92.2267179,268.88086 91.4546466,265.475955 87.3413285,265.475955 C83.2272112,265.475955 82.4559391,268.88126 82.5638373,270.199327 C82.6505554,271.257538 82.8715469,272.631573 82.8715469,272.631573 C82.8715469,272.631573 82.4359579,272.863044 82.4359579,273.792127 C82.5890135,276.12243 83.38746,275.118189 83.5529038,276.13962 C83.9501289,278.600251 84.8556743,278.160895 84.8556743,279.505347 C84.8556743,281.0273 84.4152899,281.99796 83.2024346,282.853483 C89.6775237,286.096079 90.5455046,286.756911 90.5455046,289.655697 L90.5455046,295.59799 L99.5426135,295.59799 L99.5426135,295.59759 Z M80.0082491,285.154203 C76.0555794,283.501523 74.7927712,282.107499 74.7927712,279.12316 C74.7927712,277.330957 75.9996322,277.916231 76.5295321,274.634458 C76.7489251,273.273615 77.8151189,274.61207 78.0189265,271.5046 C78.0189265,270.266089 77.4374753,269.958261 77.4374753,269.958261 C77.4374753,269.958261 77.7331962,268.12608 77.8486872,266.715266 C77.9921518,264.957844 76.9635226,260.417171 71.4782992,260.417171 C65.9934756,260.417171 64.9640471,264.957444 65.1087105,266.715266 C65.2242016,268.12608 65.5191232,269.958261 65.5191232,269.958261 C65.5191232,269.958261 64.937672,270.266089 64.937672,271.5046 C65.1422789,274.61207 66.2076734,273.273615 66.4278656,274.634458 C66.9577655,277.915832 68.1646265,277.330557 68.1646265,279.12316 C68.1646265,282.107499 66.9010191,283.501523 62.9491486,285.154203 C61.7446854,285.657922 59.5811272,286.437888 59.5811272,288.314844 L59.5811272,295.59759 L87.3425274,295.59759 L87.3425274,290.137029 C87.3417281,288.424782 83.9725078,286.81248 80.0082491,285.154203 L80.0082491,285.154203 Z" id="Users-Copy-6" fill="#515151" transform="translate(79.561870, 278.007581) scale(-1, 1) translate(-79.561870, -278.007581) "></path>
            <path d="M116.078614,295.59759 C116.078614,295.59759 115.999888,288.028203 115.537524,287.24384 C114.849773,286.07529 113.248085,285.272137 110.274491,284.029229 C107.310888,282.789519 106.363382,281.744101 106.363382,279.505347 C106.363382,278.160495 107.268128,278.600251 107.666153,276.13962 C107.830797,275.118189 108.630043,276.12243 108.783099,273.792127 C108.783099,272.863044 108.346711,272.631573 108.346711,272.631573 C108.346711,272.631573 108.568501,271.257538 108.65482,270.199327 C108.762718,268.88086 107.990647,265.475955 103.877328,265.475955 C99.7632112,265.475955 98.9919391,268.88126 99.0998373,270.199327 C99.1865554,271.257538 99.4075469,272.631573 99.4075469,272.631573 C99.4075469,272.631573 98.9719579,272.863044 98.9719579,273.792127 C99.1250135,276.12243 99.92346,275.118189 100.088904,276.13962 C100.486129,278.600251 101.391674,278.160895 101.391674,279.505347 C101.391674,281.0273 100.95129,281.99796 99.7384346,282.853483 C106.213524,286.096079 107.081505,286.756911 107.081505,289.655697 L107.081505,295.59799 L116.078614,295.59799 L116.078614,295.59759 Z M96.5442491,285.154203 C92.5915794,283.501523 91.3287712,282.107499 91.3287712,279.12316 C91.3287712,277.330957 92.5356322,277.916231 93.0655321,274.634458 C93.2849251,273.273615 94.3511189,274.61207 94.5549265,271.5046 C94.5549265,270.266089 93.9734753,269.958261 93.9734753,269.958261 C93.9734753,269.958261 94.2691962,268.12608 94.3846872,266.715266 C94.5281518,264.957844 93.4995226,260.417171 88.0142992,260.417171 C82.5294756,260.417171 81.5000471,264.957444 81.6447105,266.715266 C81.7602016,268.12608 82.0551232,269.958261 82.0551232,269.958261 C82.0551232,269.958261 81.473672,270.266089 81.473672,271.5046 C81.6782789,274.61207 82.7436734,273.273615 82.9638656,274.634458 C83.4937655,277.915832 84.7006265,277.330557 84.7006265,279.12316 C84.7006265,282.107499 83.4370191,283.501523 79.4851486,285.154203 C78.2806854,285.657922 76.1171272,286.437888 76.1171272,288.314844 L76.1171272,295.59759 L103.878527,295.59759 L103.878527,290.137029 C103.877728,288.424782 100.508508,286.81248 96.5442491,285.154203 L96.5442491,285.154203 Z" id="Users-Copy-5" fill="#515151"></path>
            <path d="M154.238614,295.59759 C154.238614,295.59759 154.159888,288.028203 153.697524,287.24384 C153.009773,286.07529 151.408085,285.272137 148.434491,284.029229 C145.470888,282.789519 144.523382,281.744101 144.523382,279.505347 C144.523382,278.160495 145.428128,278.600251 145.826153,276.13962 C145.990797,275.118189 146.790043,276.12243 146.943099,273.792127 C146.943099,272.863044 146.506711,272.631573 146.506711,272.631573 C146.506711,272.631573 146.728501,271.257538 146.81482,270.199327 C146.922718,268.88086 146.150647,265.475955 142.037328,265.475955 C137.923211,265.475955 137.151939,268.88126 137.259837,270.199327 C137.346555,271.257538 137.567547,272.631573 137.567547,272.631573 C137.567547,272.631573 137.131958,272.863044 137.131958,273.792127 C137.285013,276.12243 138.08346,275.118189 138.248904,276.13962 C138.646129,278.600251 139.551674,278.160895 139.551674,279.505347 C139.551674,281.0273 139.11129,281.99796 137.898435,282.853483 C144.373524,286.096079 145.241505,286.756911 145.241505,289.655697 L145.241505,295.59799 L154.238614,295.59799 L154.238614,295.59759 Z M134.704249,285.154203 C130.751579,283.501523 129.488771,282.107499 129.488771,279.12316 C129.488771,277.330957 130.695632,277.916231 131.225532,274.634458 C131.444925,273.273615 132.511119,274.61207 132.714927,271.5046 C132.714927,270.266089 132.133475,269.958261 132.133475,269.958261 C132.133475,269.958261 132.429196,268.12608 132.544687,266.715266 C132.688152,264.957844 131.659523,260.417171 126.174299,260.417171 C120.689476,260.417171 119.660047,264.957444 119.804711,266.715266 C119.920202,268.12608 120.215123,269.958261 120.215123,269.958261 C120.215123,269.958261 119.633672,270.266089 119.633672,271.5046 C119.838279,274.61207 120.903673,273.273615 121.123866,274.634458 C121.653766,277.915832 122.860627,277.330557 122.860627,279.12316 C122.860627,282.107499 121.597019,283.501523 117.645149,285.154203 C116.440685,285.657922 114.277127,286.437888 114.277127,288.314844 L114.277127,295.59759 L142.038527,295.59759 L142.038527,290.137029 C142.037728,288.424782 138.668508,286.81248 134.704249,285.154203 L134.704249,285.154203 Z" id="Users-Copy-3" fill="#515151"></path>
            <line x1="157.364" y1="186.772114" x2="157.364" y2="226.772114" id="Line" stroke="#E0E0E0" stroke-linecap="square" stroke-dasharray="1,1,1"></line>
            <line x1="157.364" y1="60.0694713" x2="157.364" y2="100.069471" id="Line" stroke="#E0E0E0" stroke-linecap="square" stroke-dasharray="1,1,1"></line>
            <g id="COLOR-LINES" transform="translate(48.660034, 0.131648)">
                <rect id="Rectangle-5-Copy" fill="#E20074" x="0.688897196" y="5.68434189e-14" width="73" height="2.97297171"></rect>
                <polygon id="Rectangle-5-Copy-2" fill="#067AB4" points="73.6888972 5.68434189e-14 145.688897 5.68434189e-14 145.688897 2.97297171 73.6888972 2.97297171"></polygon>
                <rect id="Rectangle-5-Copy-3" fill="#CD040B" x="145.688897" y="5.68434189e-14" width="73" height="2.97297171"></rect>
            </g>
        </g>
        <path d="M53.525,21 L53.525,12.222 L56.815,12.222 L56.815,11.2 L49.115,11.2 L49.115,12.222 L52.405,12.222 L52.405,21 L53.525,21 Z M61.893,21 L61.893,16.59 L67.549,16.59 L67.549,21 L68.655,21 L68.655,11.2 L67.549,11.2 L67.549,15.554 L61.893,15.554 L61.893,11.2 L60.787,11.2 L60.787,21 L61.893,21 Z M74.433,21 L74.433,17.192 L77.233,17.192 L80.075,21 L81.433,21 L78.423,16.996 C79.963,16.716 81.083,15.764 81.083,14.14 L81.083,14.112 C81.083,13.342 80.803,12.656 80.327,12.18 C79.711,11.564 78.745,11.2 77.541,11.2 L73.327,11.2 L73.327,21 L74.433,21 Z M77.443,16.198 L74.433,16.198 L74.433,12.222 L77.457,12.222 C79.039,12.222 79.963,12.95 79.963,14.154 L79.963,14.182 C79.963,15.442 78.913,16.198 77.443,16.198 Z M92.503,21 L92.503,19.992 L86.455,19.992 L86.455,16.562 L91.803,16.562 L91.803,15.554 L86.455,15.554 L86.455,12.208 L92.433,12.208 L92.433,11.2 L85.349,11.2 L85.349,21 L92.503,21 Z M103.783,21 L103.783,19.992 L97.735,19.992 L97.735,16.562 L103.083,16.562 L103.083,15.554 L97.735,15.554 L97.735,12.208 L103.713,12.208 L103.713,11.2 L96.629,11.2 L96.629,21 L103.783,21 Z M115.087,21 L115.087,13.076 L118.657,18.312 L118.713,18.312 L122.283,13.062 L122.283,21 L123.389,21 L123.389,11.2 L122.269,11.2 L118.699,16.548 L115.129,11.2 L114.009,11.2 L114.009,21 L115.087,21 Z M128.355,21 L129.517,18.41 L134.851,18.41 L135.999,21 L137.189,21 L132.723,11.13 L131.687,11.13 L127.221,21 L128.355,21 Z M134.417,17.402 L129.951,17.402 L132.191,12.418 L134.417,17.402 Z M143.093,21.14 C143.961,21.14 144.703,20.86 145.249,20.328 C145.809,19.768 146.145,18.9 146.145,17.752 L146.145,11.2 L145.025,11.2 L145.025,17.766 C145.025,19.32 144.213,20.118 143.107,20.118 C142.085,20.118 141.469,19.628 140.867,18.718 L140.069,19.404 C140.685,20.412 141.623,21.14 143.093,21.14 Z M155.213,21.168 C158.195,21.168 160.225,18.802 160.225,16.1 L160.225,16.072 C160.225,13.37 158.223,11.032 155.241,11.032 C152.259,11.032 150.229,13.398 150.229,16.1 L150.229,16.128 C150.229,18.83 152.231,21.168 155.213,21.168 Z M155.241,20.146 C153.001,20.146 151.377,18.326 151.377,16.1 L151.377,16.072 C151.377,13.846 152.973,12.054 155.213,12.054 C157.453,12.054 159.077,13.874 159.077,16.1 L159.077,16.128 C159.077,18.354 157.481,20.146 155.241,20.146 Z M165.569,21 L165.569,17.192 L168.369,17.192 L171.211,21 L172.569,21 L169.559,16.996 C171.099,16.716 172.219,15.764 172.219,14.14 L172.219,14.112 C172.219,13.342 171.939,12.656 171.463,12.18 C170.847,11.564 169.881,11.2 168.677,11.2 L164.463,11.2 L164.463,21 L165.569,21 Z M168.579,16.198 L165.569,16.198 L165.569,12.222 L168.593,12.222 C170.175,12.222 171.099,12.95 171.099,14.154 L171.099,14.182 C171.099,15.442 170.049,16.198 168.579,16.198 Z M187.065,21.168 C188.843,21.168 189.963,20.482 190.985,19.446 L190.257,18.732 C189.319,19.628 188.437,20.146 187.093,20.146 C184.937,20.146 183.299,18.368 183.299,16.1 L183.299,16.072 C183.299,13.818 184.923,12.054 187.093,12.054 C188.423,12.054 189.347,12.614 190.173,13.398 L190.929,12.586 C189.949,11.662 188.885,11.032 187.107,11.032 C184.223,11.032 182.151,13.328 182.151,16.1 L182.151,16.128 C182.151,18.942 184.237,21.168 187.065,21.168 Z M195.111,21 L196.273,18.41 L201.607,18.41 L202.755,21 L203.945,21 L199.479,11.13 L198.443,11.13 L193.977,21 L195.111,21 Z M201.173,17.402 L196.707,17.402 L198.947,12.418 L201.173,17.402 Z M208.883,21 L208.883,17.192 L211.683,17.192 L214.525,21 L215.883,21 L212.873,16.996 C214.413,16.716 215.533,15.764 215.533,14.14 L215.533,14.112 C215.533,13.342 215.253,12.656 214.777,12.18 C214.161,11.564 213.195,11.2 211.991,11.2 L207.777,11.2 L207.777,21 L208.883,21 Z M211.893,16.198 L208.883,16.198 L208.883,12.222 L211.907,12.222 C213.489,12.222 214.413,12.95 214.413,14.154 L214.413,14.182 C214.413,15.442 213.363,16.198 211.893,16.198 Z M220.905,21 L220.905,17.192 L223.705,17.192 L226.547,21 L227.905,21 L224.895,16.996 C226.435,16.716 227.555,15.764 227.555,14.14 L227.555,14.112 C227.555,13.342 227.275,12.656 226.799,12.18 C226.183,11.564 225.217,11.2 224.013,11.2 L219.799,11.2 L219.799,21 L220.905,21 Z M223.915,16.198 L220.905,16.198 L220.905,12.222 L223.929,12.222 C225.511,12.222 226.435,12.95 226.435,14.154 L226.435,14.182 C226.435,15.442 225.385,16.198 223.915,16.198 Z M233.025,21 L233.025,11.2 L231.919,11.2 L231.919,21 L233.025,21 Z M244.949,21 L244.949,19.992 L238.901,19.992 L238.901,16.562 L244.249,16.562 L244.249,15.554 L238.901,15.554 L238.901,12.208 L244.879,12.208 L244.879,11.2 L237.795,11.2 L237.795,21 L244.949,21 Z M250.181,21 L250.181,17.192 L252.981,17.192 L255.823,21 L257.181,21 L254.171,16.996 C255.711,16.716 256.831,15.764 256.831,14.14 L256.831,14.112 C256.831,13.342 256.551,12.656 256.075,12.18 C255.459,11.564 254.493,11.2 253.289,11.2 L249.075,11.2 L249.075,21 L250.181,21 Z M253.191,16.198 L250.181,16.198 L250.181,12.222 L253.205,12.222 C254.787,12.222 255.711,12.95 255.711,14.154 L255.711,14.182 C255.711,15.442 254.661,16.198 253.191,16.198 Z M264.457,21.14 C266.403,21.14 267.803,20.048 267.803,18.368 L267.803,18.34 C267.803,16.842 266.795,16.044 264.611,15.568 C262.455,15.106 261.951,14.588 261.951,13.664 L261.951,13.636 C261.951,12.754 262.763,12.054 264.037,12.054 C265.045,12.054 265.955,12.376 266.865,13.118 L267.509,12.264 C266.515,11.466 265.493,11.06 264.065,11.06 C262.203,11.06 260.845,12.194 260.845,13.734 L260.845,13.762 C260.845,15.372 261.881,16.1 264.135,16.59 C266.193,17.024 266.683,17.542 266.683,18.452 L266.683,18.48 C266.683,19.446 265.815,20.146 264.499,20.146 C263.141,20.146 262.161,19.684 261.139,18.76 L260.453,19.572 C261.629,20.622 262.903,21.14 264.457,21.14 Z" id="THREEMAJORCARRIERS" fill="#515151" fill-rule="nonzero"></path>
    </g>
</svg>