<svg height="103" viewBox="0 0 70 103" width="70" xmlns="http://www.w3.org/2000/svg"><g fill="none" fill-rule="evenodd"><path d="m7.61272394 11.5s8.89999996-9.5 27.09999996-9.5 26.9 9.6 26.9 9.6m-45.1 8.1s5.8-6.4 18.1-6.4c12.1 0 17.9 6.5 17.9 6.5m-27.5 8.4s3.9-3.3 9.5-3.3 9.4 3.3 9.4 3.3" stroke="#717074" stroke-linecap="round" stroke-width="3.8157"/><path d="m.01272394 23.5s11.19999996 0 11.19999996 13.1v29.3s-.7 26.6 23 26.6 23.6-26.6 23.6-26.6 0-17.4 0-29.1c0-12.7 11.2-13.5 11.2-13.5v42.5s1.1 37-34.8 37c-35.89999996 0-34.19999996-37-34.19999996-37z" fill="#44ba86" fill-rule="nonzero"/></g></svg>