<svg height="105" viewBox="0 0 516 105" width="516" xmlns="http://www.w3.org/2000/svg"><g fill="none" fill-rule="evenodd" transform="translate(.989499 2)"><g fill="#fff"><path d="m101.610501 72.7c7.4 0 12.3-4.5 12.3-13v-16.8h-3.3v17.1c0 6.4-3.4 9.7-8.9 9.7-5.6000001 0-9.0000001-3.6-9.0000001-9.9v-16.9h-3.3v17.1c0 8.3 4.9 12.7 12.2000001 12.7z" fill-rule="nonzero"/><path d="m127.810501 72.2h3.3v-24.1l19 24.1h2.6v-29.4h-3.2v23.6l-18.5-23.6h-3.2z" fill-rule="nonzero"/><path d="m197.610501 72.2h3.3v-29.4h-3.3z" fill-rule="nonzero"/><path d="m216.710501 72.2h3.2v-24.6l10.9 23.3 1.7.1 11-23.6v24.8h3.3v-29.4h-5.4l-9.7 21.8-9.9-21.8h-5.1z" fill-rule="nonzero"/><path d="m262.610501 72.2h3.3v-29.4h-3.3z" fill-rule="nonzero"/><path d="m287.410501 72.2h3.4v-26.3h9.8v-3.1h-23.1v3.1h9.9z" fill-rule="nonzero"/><path d="m345.310501 72.2h10.2c9.2 0 15.6-6.4 15.6-14.7v-.1c0-8.3-6.4-14.6-15.6-14.6h-10.2zm10.2-26.3c7.4 0 12.2 5.1 12.2 11.6v.1c0 6.5-4.7 11.6-12.2 11.6h-6.9v-23.3z"/></g><path d="m392.110501 72.5h3.2l11.5-29.5-3.5-.2-9.5 24.6-9.3-24.6-3.7.2z" fill="#44ba86" fill-rule="nonzero"/><path d="m418.310501 72.2h3.3v-29.4h-3.3z" fill="#44ba86" fill-rule="nonzero"/><path d="m466.010501 72.2h16.9v-3h-13.6v-26.4h-3.3z" fill="#44ba86" fill-rule="nonzero"/><path d="m494.710501 72.2h19.4v-3h-16.1v-10.5h14.8v-3h-14.8v-9.8h15.3v-3.1h-18.6z" fill="#44ba86" fill-rule="nonzero"/><path d="m437.010501 72.2h16.9v-3h-13.6v-26.4h-3.3z" fill="#44ba86" fill-rule="nonzero"/><path d="m313.310501 72.2h19.5v-3h-16.2v-10.5h14.8v-3h-14.8v-9.8h15.3v-3.1h-18.6z" fill="#fff" fill-rule="nonzero"/><path d="m168.610501 72.2h16.9v-3h-13.5v-26.4h-3.4z" fill="#fff" fill-rule="nonzero"/><path d="m7.71050088 9.6s9.00000002-9.6 27.40000002-9.6 27.2 9.7 27.2 9.7m-45.6 8.2s5.9-6.5 18.3-6.5c12.3 0 18.1 6.5 18.1 6.5m-27.8 8.6s4-3.3 9.7-3.3 9.5 3.4 9.5 3.4" stroke="#fff" stroke-linecap="round" stroke-width="3.8649"/><path d="m.01050088 21.8s11.30000002 0 11.30000002 13.2v29.7s-.7 26.9 23.3 26.9 23.9-26.9 23.9-26.9 0-17.6 0-29.5c0-12.9 11.4-13.6 11.4-13.6v43.1s1.1 37.5-35.2 37.5c-36.30000002 0-34.70000002-37.5-34.70000002-37.5z" fill="#44ba86" fill-rule="nonzero"/></g></svg>