<svg height="105" viewBox="0 0 71 105" width="71" xmlns="http://www.w3.org/2000/svg"><g fill="none" fill-rule="evenodd"><path d="m8.7 11.6s9-9.6 27.4-9.6 27.2 9.7 27.2 9.7m-45.6 8.2s5.9-6.5 18.3-6.5c12.3 0 18.1 6.5 18.1 6.5m-27.8 8.6s4-3.3 9.7-3.3 9.5 3.4 9.5 3.4" stroke="#fff" stroke-linecap="round" stroke-width="3.8649"/><path d="m1 23.8s11.3 0 11.3 13.2v29.7s-.7 26.9 23.3 26.9 23.9-26.9 23.9-26.9 0-17.6 0-29.5c0-12.9 11.4-13.6 11.4-13.6v43.1s1.1 37.5-35.2 37.5c-36.3 0-34.7-37.5-34.7-37.5z" fill="#44ba86" fill-rule="nonzero"/></g></svg>