<svg height="103" viewBox="0 0 515 103" width="515" xmlns="http://www.w3.org/2000/svg"><g fill="none" fill-rule="evenodd" transform="translate(.587276 1.9)"><g fill="#717074"><path d="m101.012724 71.4c7.4 0 12.3-4.5 12.3-13v-16.8h-3.3v17.1c0 6.4-3.4 9.7-8.9 9.7-5.6000001 0-9.0000001-3.6-9.0000001-9.9v-16.9h-3.3v17.1c0 8.3 4.9 12.7 12.2000001 12.7z" fill-rule="nonzero"/><path d="m127.212724 70.9h3.3v-24.1l19 24.1h2.6v-29.4h-3.2v23.6l-18.5-23.6h-3.2z" fill-rule="nonzero"/><path d="m197.012724 70.9h3.3v-29.4h-3.3z" fill-rule="nonzero"/><path d="m216.112724 70.9h3.2v-24.5l10.9 23.2 1.7.1 11-23.6v24.8h3.3v-29.4h-5.4l-9.7 21.9-9.9-21.9h-5.1z" fill-rule="nonzero"/><path d="m262.012724 70.9h3.3v-29.4h-3.3z" fill-rule="nonzero"/><path d="m286.812724 70.9h3.4v-26.3h9.8v-3.1h-23.1v3.1h9.9z" fill-rule="nonzero"/><path d="m344.712724 70.9h10.2c9.2 0 15.6-6.4 15.6-14.7v-.1c0-8.3-6.4-14.6-15.6-14.6h-10.2zm10.2-26.3c7.4 0 12.2 5.1 12.2 11.6v.1c0 6.5-4.7 11.6-12.2 11.6h-6.9v-23.3z"/></g><path d="m391.512724 71.2h3.2l11.5-29.5-3.5-.2-9.5 24.6-9.3-24.6-3.7.2z" fill="#44ba86" fill-rule="nonzero"/><path d="m417.712724 70.9h3.3v-29.4h-3.3z" fill="#44ba86" fill-rule="nonzero"/><path d="m465.412724 70.9h16.9v-3h-13.6v-26.4h-3.3z" fill="#44ba86" fill-rule="nonzero"/><path d="m494.112724 70.9h19.4v-3h-16.1v-10.5h14.8v-3h-14.8v-9.8h15.3v-3.1h-18.6z" fill="#44ba86" fill-rule="nonzero"/><path d="m436.412724 70.9h16.9v-3h-13.6v-26.4h-3.3z" fill="#44ba86" fill-rule="nonzero"/><path d="m312.712724 70.9h19.5v-3h-16.2v-10.5h14.8v-3h-14.8v-9.8h15.3v-3.1h-18.6z" fill="#717074" fill-rule="nonzero"/><path d="m168.012724 70.9h16.9v-3h-13.5v-26.4h-3.4z" fill="#717074" fill-rule="nonzero"/><path d="m7.61272394 9.5s8.89999996-9.5 27.09999996-9.5 26.9 9.6 26.9 9.6m-45.1 8.1s5.8-6.4 18.1-6.4c12.1 0 17.9 6.5 17.9 6.5m-27.5 8.4s3.9-3.3 9.5-3.3 9.4 3.3 9.4 3.3" stroke="#717074" stroke-linecap="round" stroke-width="3.8157"/><path d="m.01272394 21.5s11.19999996 0 11.19999996 13.1v29.3s-.7 26.6 23 26.6 23.6-26.6 23.6-26.6 0-17.4 0-29.1c0-12.7 11.2-13.5 11.2-13.5v42.5s1.1 37-34.8 37c-35.89999996 0-34.19999996-37-34.19999996-37z" fill="#44ba86" fill-rule="nonzero"/></g></svg>